Coordinates
version=1
nRows=19
nColumns=36
inDegrees=yes

Units are S.I. units (second, meters, Newtons, ...)
If the header above contains a line with 'inDegrees', this indicates whether rotational values are in degrees (yes) or radians (no).

endheader
time	pelvis_tilt	pelvis_list	pelvis_rotation	pelvis_tx	pelvis_ty	pelvis_tz	hip_flexion_r	hip_adduction_r	hip_rotation_r	knee_angle_r	knee_angle_r_beta	ankle_angle_r	subtalar_angle_r	mtp_angle_r	hip_flexion_l	hip_adduction_l	hip_rotation_l	knee_angle_l	knee_angle_l_beta	ankle_angle_l	subtalar_angle_l	mtp_angle_l	lumbar_extension	lumbar_bending	lumbar_rotation	arm_flex_r	arm_add_r	arm_rot_r	elbow_flex_r	pro_sup_r	arm_flex_l	arm_add_l	arm_rot_l	elbow_flex_l	pro_sup_l
      1.75833330	     -2.73133150	      0.54380948	     -0.15276732	     -0.99292945	      1.37741957	     -0.07562942	     -3.38203006	      2.26356120	    -19.19379284	      0.07110399	      0.00124100	     13.61416577	     -0.99123582	     -7.49999987	     -3.68510195	      1.16224334	    -22.80922652	      0.07401557	      0.00129182	     11.27719438	      5.47569005	     -7.49999987	     -3.60946831	     -0.09321119	      2.32059126	      3.02312058	     -4.18193086	     20.35030693	     26.48665249	     72.42660028	      4.19904585	     -8.75018898	     29.01466334	     28.91763612	     85.37522083
      1.76250000	     -2.76417264	      0.52824698	     -0.23666753	     -0.99394377	      1.37628406	     -0.07610773	     -3.34682947	      2.30150122	    -19.16145566	      0.07209718	      0.00125833	     13.72175883	     -0.88956605	     -7.49999987	     -3.65056513	      1.14823562	    -23.09544854	      0.07407464	      0.00129285	     11.62502161	      6.10958384	     -7.49999987	     -3.62910159	     -0.10350920	      2.36765717	      2.98197353	     -4.23001248	     20.03813981	     26.66140116	     75.64507353	      4.07940814	     -8.73924940	     27.79157819	     29.19586158	     91.73160285
      1.76666670	     -2.75429239	      0.52900220	     -0.23121592	     -0.99405048	      1.37831378	     -0.07600563	     -3.32121579	      2.31630903	    -18.80956510	      0.07222922	      0.00126064	     13.56590908	     -1.41149198	     -7.49999987	     -3.64433140	      1.14309624	    -22.81154555	      0.07403528	      0.00129216	     11.56117215	      5.63856436	     -7.49999987	     -3.70939356	     -0.13185001	      2.35388030	      3.02647071	     -4.20690900	     19.98907053	     26.67806229	     74.59007969	      4.08473473	     -8.73194478	     27.80081110	     29.20890076	     89.59284122
      1.77083330	     -2.81669395	      0.55949157	     -0.16993007	     -0.99256684	      1.37936754	     -0.07602402	     -3.26604718	      2.28552692	    -19.14639380	      0.07230130	      0.00126190	     13.66058357	     -0.90355283	     -7.49999987	     -3.58780396	      1.16224922	    -23.05527058	      0.07430859	      0.00129693	     11.65487477	      6.06561909	     -7.49999987	     -3.65245139	     -0.16785209	      2.32553732	      2.95524206	     -4.26482513	     20.40178342	     26.77640294	     74.05397727	      4.07823153	     -8.85011981	     28.44538041	     29.29883152	     88.61083257
      1.77500000	     -2.86166366	      0.57094807	     -0.14746949	     -0.99210278	      1.37827186	     -0.07645890	     -3.23308332	      2.26904888	    -19.08690220	      0.07260982	      0.00126728	     13.60026285	     -0.91826833	     -7.49999987	     -3.55401587	      1.15774586	    -23.05363390	      0.07449424	      0.00130017	     11.66496554	      6.10876895	     -7.49999987	     -3.57990566	     -0.20330327	      2.32060952	      2.88471416	     -4.26055838	     20.50418801	     26.80385293	     73.53959438	      4.05983527	     -8.88908758	     28.67810017	     29.29525523	     87.74809974
      1.77916670	     -2.86698878	      0.59767717	     -0.13679138	     -0.99073688	      1.37978603	     -0.07629553	     -3.27640635	      2.23098958	    -18.96271429	      0.07253060	      0.00126590	     13.45459598	     -1.16609788	     -7.49999987	     -3.55996385	      1.18344482	    -22.88694749	      0.07411318	      0.00129352	     11.55118288	      6.01266402	     -7.49999987	     -3.59684813	     -0.23721487	      2.28805635	      2.85769725	     -4.26040913	     20.41762832	     26.79743426	     73.18125275	      4.01082321	     -8.86600275	     28.59138381	     29.28987949	     87.10635169
      1.78333330	     -2.91418424	      0.57863924	     -0.13242960	     -0.98994817	      1.37593784	     -0.07517689	     -3.27085442	      2.27312931	    -19.03435017	      0.07254003	      0.00126606	     13.66242691	     -0.96607091	     -7.49999987	     -3.56383839	      1.14541190	    -22.87707810	      0.07431225	      0.00129699	     11.62940649	      6.05670501	     -7.49999987	     -3.44869054	     -0.23213566	      2.33453892	      2.76215426	     -4.25236270	     20.44112011	     26.78745719	     73.22816992	      3.89268121	     -8.90612725	     28.59259982	     29.34010689	     87.22279922
      1.78750000	     -2.99254564	      0.57398060	     -0.08725114	     -0.99177410	      1.37710779	     -0.07693957	     -3.20692088	      2.26632781	    -18.91595954	      0.07238263	      0.00126332	     13.57296068	     -1.26745273	     -7.49999987	     -3.49869532	      1.14070526	    -22.77491832	      0.07443315	      0.00129910	     11.63092063	      5.82681192	     -7.49999987	     -3.35357135	     -0.20743925	      2.28050251	      2.70918783	     -4.27691487	     20.36733101	     26.83405527	     72.81833878	      3.83577841	     -8.90622664	     28.58872398	     29.35095100	     86.29223461
      1.79166670	     -2.98771530	      0.55795683	     -0.07646469	     -0.99105512	      1.37638918	     -0.07666186	     -3.23296504	      2.27191759	    -19.01404782	      0.07263357	      0.00126769	     13.60307230	     -1.21761533	     -7.49999987	     -3.53058184	      1.12844170	    -22.73819363	      0.07434005	      0.00129748	     11.65798992	      5.76621487	     -7.49999987	     -3.35035044	     -0.18878822	      2.26817680	      2.68442148	     -4.29003871	     20.41655378	     26.90958529	     72.56224077	      3.77490793	     -8.93250694	     28.65810387	     29.45413388	     85.81050972
      1.79583330	     -3.06733285	      0.54526052	     -0.03803985	     -0.99035024	      1.37623528	     -0.07702989	     -3.15604666	      2.27634854	    -18.97549102	      0.07287605	      0.00127193	     13.52009819	     -1.35353713	     -7.49999987	     -3.47509691	      1.11626289	    -22.82740244	      0.07435782	      0.00129779	     11.64827788	      5.80023680	     -7.49999987	     -3.22586518	     -0.15601168	      2.27859865	      2.57808209	     -4.33092153	     20.43447827	     27.00119567	     72.27000022	      3.67662090	     -8.96808579	     28.69239571	     29.54957186	     85.26870587
      1.80000000	     -3.06049684	      0.54522180	      0.01507123	     -0.98994726	      1.37662585	     -0.07654034	     -3.20138121	      2.28133754	    -19.04290466	      0.07282907	      0.00127111	     13.62950070	     -1.28935130	     -7.49999987	     -3.49249883	      1.10744727	    -22.42673195	      0.07403243	      0.00129211	     11.61536992	      5.53244143	     -7.49999987	     -3.21199040	     -0.17585840	      2.22379518	      2.61815280	     -4.30736113	     20.46986873	     26.90565765	     71.98154735	      3.66782877	     -8.96317665	     28.75815571	     29.47199594	     84.70886259
      1.80416670	     -3.17422400	      0.53110801	     -0.01954222	     -0.99051061	      1.37597746	     -0.07689741	     -3.09275583	      2.30826555	    -18.89777328	      0.07295893	      0.00127337	     13.59050095	     -1.44367951	     -7.49999987	     -3.35862507	      1.09189980	    -22.44635113	      0.07356834	      0.00128401	     11.58933521	      5.61071580	     -7.49999987	     -3.04991995	     -0.15158396	      2.25692363	      2.53541222	     -4.35835938	     20.48675270	     27.07583921	     71.69270670	      3.54028384	     -9.00605808	     28.78820046	     29.62919732	     84.12958705
      1.80833330	     -3.16419320	      0.55793010	     -0.06559843	     -0.98855597	      1.37824058	     -0.07578674	     -3.14901942	      2.29205099	    -18.94425702	      0.07293759	      0.00127300	     13.88960981	     -1.13347630	     -7.49999987	     -3.40016916	      1.09937392	    -22.65705862	      0.07342615	      0.00128153	     11.95318968	      6.40239859	     -7.49999987	     -3.04385586	     -0.23027284	      2.31022933	      2.44332169	     -4.35982165	     20.09670190	     27.16956735	     75.45122973	      3.31326268	     -8.98578476	     27.24294353	     29.86511107	     91.91019877
      1.81250000	     -3.19793161	      0.56680975	     -0.09601366	     -0.98794069	      1.37734214	     -0.07585732	     -3.15637771	      2.29781287	    -19.00048151	      0.07282673	      0.00127107	     14.00501362	     -1.01639872	     -7.49999987	     -3.38145938	      1.11111198	    -22.61185215	      0.07307527	      0.00127540	     12.04773726	      6.71280069	     -7.49999987	     -2.94092534	     -0.26657635	      2.32502963	      2.36399220	     -4.35615281	     20.23739642	     27.22700697	     74.54396715	      3.19046464	     -9.04832238	     27.48428678	     29.94812967	     89.96222998
      1.81666670	     -3.20565364	      0.56062931	     -0.13905022	     -0.98842548	      1.37755139	     -0.07569583	     -3.18265196	      2.31182778	    -19.05219296	      0.07295834	      0.00127336	     14.05967563	     -1.00842956	     -7.49999987	     -3.40605398	      1.11012188	    -22.65109547	      0.07265168	      0.00126801	     12.11436937	      6.94653705	     -7.49999987	     -2.88472663	     -0.28033825	      2.34965807	      2.33642408	     -4.37881122	     20.38513426	     27.26559808	     74.12432772	      3.13321353	     -9.10695894	     27.77201640	     29.96812054	     88.92216236
      1.82083330	     -3.34635269	      0.57806822	     -0.19294281	     -0.98959266	      1.37618813	     -0.07435453	     -3.02873145	      2.32192656	    -18.85921027	      0.07306632	      0.00127525	     13.84896812	     -1.55831285	     -7.49999987	     -3.29169359	      1.12059085	    -22.46887348	      0.07256943	      0.00126658	     11.93824716	      6.61405714	     -7.49999987	     -2.65029332	     -0.32735000	      2.37903036	      2.37048587	     -4.25310869	     20.31051532	     26.99175172	     73.12302831	      3.10745624	     -9.08019914	     27.76941022	     29.68155525	     86.92300431
      1.82500000	     -3.25620498	      0.55413217	     -0.23607824	     -0.98801400	      1.37731818	     -0.07445537	     -3.14008159	      2.38004908	    -18.77203164	      0.07326534	      0.00127872	     13.73584703	     -1.73446689	     -7.49999987	     -3.44045838	      1.07542542	    -22.55097208	      0.07227099	      0.00126137	     11.97173832	      6.77249450	     -7.49999987	     -2.75495071	     -0.33721216	      2.41727676	      2.36323504	     -4.26651056	     20.35315645	     27.08596389	     72.43355494	      3.08043268	     -9.16851981	     27.91266302	     29.82146810	     85.68038547
      1.82916670	     -3.26887487	      0.53512902	     -0.26864516	     -0.98922589	      1.37743592	     -0.07454259	     -3.09923029	      2.41595863	    -18.96703990	      0.07349594	      0.00128275	     13.88002454	     -1.33049093	     -7.49999987	     -3.45449393	      1.02594119	    -22.72775663	      0.07213744	      0.00125904	     12.03255092	      6.88492884	     -7.49999987	     -2.78429828	     -0.33833298	      2.53466745	      2.29711973	     -4.35233184	     20.20887111	     27.37488898	     75.29053726	      3.02679607	     -9.24253550	     27.18731781	     30.12626197	     91.81805989
      1.83333330	     -3.23599638	      0.51605340	     -0.25456652	     -0.98867716	      1.37733248	     -0.07470368	     -3.13032613	      2.44609050	    -18.89644665	      0.07336951	      0.00128054	     13.81850797	     -1.53082146	     -7.49999987	     -3.49805320	      0.98869750	    -22.47374201	      0.07190704	      0.00125501	     11.85507157	      6.34828165	     -7.49999987	     -2.86079161	     -0.32397824	      2.46686540	      2.38764756	     -4.31958070	     20.17229906	     27.28719918	     74.76928360	      3.00938650	     -9.24266632	     27.17731061	     30.04243930	     90.73024607
